<svg xmlns="http://www.w3.org/2000/svg" style="display: none;">
  <symbol id="icon-website" viewBox="0 0 640 640">
    <path d="M415.9 344L225 344C227.9 408.5 242.2 467.9 262.5 511.4C273.9 535.9 286.2 553.2 297.6 563.8C308.8 574.3 316.5 576 320.5 576C324.5 576 332.2 574.3 343.4 563.8C354.8 553.2 367.1 535.8 378.5 511.4C398.8 467.9 413.1 408.5 416 344zM224.9 296L415.8 296C413 231.5 398.7 172.1 378.4 128.6C367 104.2 354.7 86.8 343.3 76.2C332.1 65.7 324.4 64 320.4 64C316.4 64 308.7 65.7 297.5 76.2C286.1 86.8 273.8 104.2 262.4 128.6C242.1 172.1 227.8 231.5 224.9 296zM176.9 296C180.4 210.4 202.5 130.9 234.8 78.7C142.7 111.3 74.9 195.2 65.5 296L176.9 296zM65.5 344C74.9 444.8 142.7 528.7 234.8 561.3C202.5 509.1 180.4 429.6 176.9 344L65.5 344zM463.9 344C460.4 429.6 438.3 509.1 406 561.3C498.1 528.6 565.9 444.8 575.3 344L463.9 344zM575.3 296C565.9 195.2 498.1 111.3 406 78.7C438.3 130.9 460.4 210.4 463.9 296L575.3 296z"/>
  </symbol>

  <symbol id="icon-linkedin" viewBox="0 0 640 640">
    <path d="M196.3 512L103.4 512L103.4 212.9L196.3 212.9L196.3 512zM149.8 172.1C120.1 172.1 96 147.5 96 117.8C96 103.5 101.7 89.9 111.8 79.8C121.9 69.7 135.6 64 149.8 64C164 64 177.7 69.7 187.8 79.8C197.9 89.9 203.6 103.6 203.6 117.8C203.6 147.5 179.5 172.1 149.8 172.1zM543.9 512L451.2 512L451.2 366.4C451.2 331.7 450.5 287.2 402.9 287.2C354.6 287.2 347.2 324.9 347.2 363.9L347.2 512L254.4 512L254.4 212.9L343.5 212.9L343.5 253.7L344.8 253.7C357.2 230.2 387.5 205.4 432.7 205.4C526.7 205.4 544 267.3 544 347.7L544 512L543.9 512z"/>
  </symbol>

  <symbol id="icon-instagram" viewBox="0 0 640 640">
    <path d="M320.3 205C256.8 204.8 205.2 256.2 205 319.7C204.8 383.2 256.2 434.8 319.7 435C383.2 435.2 434.8 383.8 435 320.3C435.2 256.8 383.8 205.2 320.3 205zM319.7 245.4C360.9 245.2 394.4 278.5 394.6 319.7C394.8 360.9 361.5 394.4 320.3 394.6C279.1 394.8 245.6 361.5 245.4 320.3C245.2 279.1 278.5 245.6 319.7 245.4zM413.1 200.3C413.1 185.5 425.1 173.5 439.9 173.5C454.7 173.5 466.7 185.5 466.7 200.3C466.7 215.1 454.7 227.1 439.9 227.1C425.1 227.1 413.1 215.1 413.1 200.3zM542.8 227.5C541.1 191.6 532.9 159.8 506.6 133.6C480.4 107.4 448.6 99.2 412.7 97.4C375.7 95.3 264.8 95.3 227.8 97.4C192 99.1 160.2 107.3 133.9 133.5C107.6 159.7 99.5 191.5 97.7 227.4C95.6 264.4 95.6 375.3 97.7 412.3C99.4 448.2 107.6 480 133.9 506.2C160.2 532.4 191.9 540.6 227.8 542.4C264.8 544.5 375.7 544.5 412.7 542.4C448.6 540.7 480.4 532.5 506.6 506.2C532.8 480 541 448.2 542.8 412.3C544.9 375.3 544.9 264.5 542.8 227.5zM495 452C487.2 471.6 472.1 486.7 452.4 494.6C422.9 506.3 352.9 503.6 320.3 503.6C287.7 503.6 217.6 506.2 188.2 494.6C168.6 486.8 153.5 471.7 145.6 452C133.9 422.5 136.6 352.5 136.6 319.9C136.6 287.3 134 217.2 145.6 187.8C153.4 168.2 168.5 153.1 188.2 145.2C217.7 133.5 287.7 136.2 320.3 136.2C352.9 136.2 423 133.6 452.4 145.2C472 153 487.1 168.1 495 187.8C506.7 217.3 504 287.3 504 319.9C504 352.5 506.7 422.6 495 452z"/>
  </symbol>

  <symbol id="icon-twitter" viewBox="0 0 640 640">
    <path d="M453.2 112L523.8 112L369.6 288.2L551 528L409 528L297.7 382.6L170.5 528L99.8 528L264.7 339.5L90.8 112L236.4 112L336.9 244.9L453.2 112zM428.4 485.8L467.5 485.8L215.1 152L173.1 152L428.4 485.8z"/>
  </symbol>

  <symbol id="icon-github" viewBox="0 0 640 640">
    <path d="M266.1 392.7C266.1 413.6 255.2 447.8 229.4 447.8C203.6 447.8 192.7 413.6 192.7 392.7C192.7 371.8 203.6 337.6 229.4 337.6C255.2 337.6 266.1 371.8 266.1 392.7zM560 342.2C560 374.1 556.8 407.9 542.5 437.2C504.6 513.8 400.4 512 325.8 512C250 512 139.6 514.7 100.2 437.2C85.6 408.2 80 374.1 80 342.2C80 300.3 93.9 260.7 121.5 228.6C116.3 212.8 113.8 196.2 113.8 179.8C113.8 158.3 118.7 147.5 128.4 128C173.7 128 202.7 137 237.2 164C266.2 157.1 296 154 325.9 154C352.9 154 380.1 156.9 406.3 163.2C440.3 136.5 469.3 128 514.1 128C523.9 147.5 528.7 158.3 528.7 179.8C528.7 196.2 526.1 212.5 521 228C548.5 260.4 560 300.3 560 342.2zM495.7 392.7C495.7 348.8 469 310.1 422.2 310.1C403.3 310.1 385.2 313.5 366.2 316.1C351.3 318.4 336.4 319.3 321.1 319.3C305.9 319.3 291 318.4 276 316.1C257.3 313.5 239 310.1 220 310.1C173.2 310.1 146.5 348.8 146.5 392.7C146.5 480.5 226.9 494 296.9 494L345.1 494C415.4 494 495.7 480.6 495.7 392.7zM413.1 337.6C387.3 337.6 376.4 371.8 376.4 392.7C376.4 413.6 387.3 447.8 413.1 447.8C438.9 447.8 449.8 413.6 449.8 392.7C449.8 371.8 438.9 337.6 413.1 337.6z"/>
  </symbol>
</svg>